<?xml version="1.0" encoding="utf-8"?>
<!-- Generator: $$$/GeneralStr/196=Adobe Illustrator 27.6.0, SVG Export Plug-In . SVG Version: 6.00 Build 0)  -->
<svg version="1.1" id="Ebene_1" xmlns:serif="http://www.serif.com/"
	 xmlns="http://www.w3.org/2000/svg" xmlns:xlink="http://www.w3.org/1999/xlink" x="0px" y="0px" viewBox="0 0 595.3 152.1"
	 style="enable-background:new 0 0 595.3 152.1;" xml:space="preserve">
<style type="text/css">
	.st0{fill-rule:evenodd;clip-rule:evenodd;fill:#231F20;}
	.st1{fill:#231F20;}
</style>
<g>
	<g>
		<g>
			<g>
				<rect y="0" class="st0" width="23.4" height="149.4"/>
			</g>
			<g>
				<path class="st1" d="M83.3,59.3c6.3,0,11.2,2.3,14.9,6.8c3.6,4.5,5.4,10.6,5.4,18.2v65.2H81.2V86.7c0-3.6-0.5-6.2-1.5-7.8
					c-1-1.5-2.5-2.3-4.5-2.3c-4,0-8,4-12.2,11.9v60.9H40.6V62h19.6L61.9,73c2.9-4.5,6-7.9,9.4-10.2C74.7,60.5,78.7,59.3,83.3,59.3
					L83.3,59.3z"/>
			</g>
			<g>
				<path class="st1" d="M193.4,149.4h-29L137.7,28.9l0.5,6c0.8,9.5,1.4,18.4,1.9,26.6c0.5,8.2,0.7,17.6,0.7,28.1v59.8h-20.5V0h29
					l26.9,120.7c-0.9-6.3-1.7-14.3-2.3-23.9c-0.7-9.6-1-19.4-1-29.5V0h20.5L193.4,149.4L193.4,149.4z"/>
			</g>
			<g>
				<path class="st1" d="M242.8,59.3c11.2,0,20,3.9,26.2,11.7c6.3,7.8,9.4,19.4,9.4,34.7c0,14.6-3.2,26-9.5,34.2
					c-6.3,8.1-15,12.2-26.2,12.2c-11.1,0-19.8-4-26.2-11.9c-6.3-7.9-9.5-19.4-9.5-34.5c0-15,3.1-26.4,9.4-34.4
					C222.8,63.3,231.6,59.3,242.8,59.3L242.8,59.3z M242.8,76.3c-4.3,0-7.4,2.2-9.4,6.7c-2,4.5-3,12-3,22.7c0,10.8,1,18.4,3,22.9
					c2,4.5,5.1,6.7,9.4,6.7c4.3,0,7.4-2.3,9.4-6.8c2-4.5,3-12.1,3-22.8c0-10.8-1-18.4-3-22.8C250.2,78.5,247.1,76.3,242.8,76.3z"/>
			</g>
			<g>
				<path class="st1" d="M397.7,0l-15.2,149.4h-30.4L341.1,93l-11.6,56.4h-29.9L285,0h22.3l9.4,125.7l12.5-63.7h24.4l12,63.7
					L376.2,0L397.7,0L397.7,0z"/>
			</g>
			<path class="st1" d="M470.8,103.7c0,1.2-0.2,4.1-0.5,8.7h-44.7c0.4,8.6,2,14.5,4.5,17.8c2.6,3.3,6.2,5,10.8,5
				c3.2,0,6.2-0.6,8.9-1.7c2.8-1.2,5.7-2.9,8.9-5.4l9.2,12.4c-7.9,7.7-17.4,11.6-28.6,11.6c-11.8,0-20.8-4-27.1-12
				c-6.3-8-9.4-19.3-9.4-33.7c0-14.4,3-25.9,8.9-34.3c5.9-8.5,14.5-12.7,25.6-12.7c10.5,0,18.6,3.8,24.5,11.3
				C467.9,78.2,470.8,89.2,470.8,103.7L470.8,103.7z M449,97.3c0-7.9-0.9-13.7-2.6-17.2c-1.8-3.6-4.7-5.4-8.7-5.4
				c-3.7,0-6.6,1.8-8.5,5.3c-1.9,3.5-3.1,9.7-3.5,18.7H449C449,98.6,449,97.3,449,97.3z"/>
			<path class="st1" d="M508.8,59.3c5.4,0,10.4,0.9,14.9,2.7c4.6,1.8,8.6,4.4,12,7.8l-8.4,12.2c-5.9-4.3-11.5-6.4-16.7-6.4
				c-3,0-5.3,0.7-6.9,2.2c-1.7,1.5-2.5,3.6-2.5,6.4c0,1.9,0.4,3.4,1.2,4.7c0.8,1.3,2.3,2.5,4.4,3.8c2.1,1.3,5.3,2.8,9.6,4.5
				c7.5,3,13,6.5,16.5,10.5c3.5,4,5.3,9.4,5.3,16.3c0,8.7-3,15.5-9.1,20.5c-6.1,5-13.8,7.5-23.3,7.5c-6,0-11.7-1.1-16.8-3.3
				c-5.2-2.2-9.6-5.3-13.4-9.2l10.6-11.7c6.6,5.4,12.8,8.1,18.7,8.1c3.3,0,5.9-0.9,7.8-2.6c1.9-1.8,2.8-4.2,2.8-7.3c0-3.4-1-6.1-3-8
				c-2-1.9-6.1-4.1-12.2-6.5c-7.6-3.1-13-6.6-16.3-10.6c-3.2-4-4.9-9-4.9-15.2c0-5,1.2-9.4,3.5-13.5c2.4-4,5.8-7.2,10.3-9.5
				C497.4,60.5,502.7,59.3,508.8,59.3z"/>
			<path class="st1" d="M595.3,145.5c-2.8,2.2-5.9,3.9-9.3,5c-3.5,1.1-7,1.7-10.5,1.7c-8,0-14.1-2.3-18.2-6.8
				c-4.1-4.6-6.1-10.8-6.1-18.6V78h-9.7V62h9.7V42.8l22.4-2.8v22H590l-2.1,16h-14.2v48.5c0,5.1,2.1,7.6,6.3,7.6
				c1.4,0,2.7-0.2,3.8-0.6c1.1-0.4,2.4-1,4-1.9L595.3,145.5L595.3,145.5z"/>
		</g>
	</g>
</g>
</svg>
