<?xml version="1.0" encoding="UTF-8"?>
<svg width="400px" height="400px" viewBox="0 0 400 400" version="1.1" xmlns="http://www.w3.org/2000/svg" xmlns:xlink="http://www.w3.org/1999/xlink">
    <title>Group</title>
    <g id="Page-1" stroke="none" stroke-width="1" fill="none" fill-rule="evenodd">
        <g id="Group">
            <rect id="Rectangle" x="0" y="0" width="400" height="400"></rect>
            <g id="InnoWest" transform="translate(5.000000, 150.000000)" fill="#231F20">
                <rect id="Rectangle" x="0" y="0" width="15.3300857" height="97.8767008"></rect>
                <path d="M54.5724845,38.8493197 C58.6998152,38.8493197 61.9099614,40.356123 64.3339493,43.3042164 C66.692424,46.2523098 67.8716613,50.2486141 67.8716613,55.2276163 L67.8716613,97.942214 L53.1967075,97.942214 L53.1967075,56.7999328 C53.1967075,54.4414581 52.8691416,52.7381152 52.2140097,51.6899042 C51.5588779,50.7072065 50.5761801,50.183101 49.2659163,50.183101 C46.6453889,50.183101 44.0248614,52.8036284 41.2733076,57.9791702 L41.2733076,97.8767008 L26.5983538,97.8767008 L26.5983538,40.6181757 L39.4389384,40.6181757 L40.5526625,47.8246262 C42.4525449,44.8765328 44.4834537,42.6490845 46.7109021,41.1422812 C48.9383504,39.6354779 51.5588779,38.8493197 54.5724845,38.8493197 L54.5724845,38.8493197 Z" id="Path" fill-rule="nonzero"></path>
                <path d="M126.702503,97.8767008 L107.703679,97.8767008 L90.211658,18.9333109 L90.5392239,22.8641021 C91.0633294,29.0878549 91.4564085,34.9185285 91.7839745,40.2906098 C92.1115404,45.6626911 92.2425668,51.8209306 92.2425668,58.6998152 L92.2425668,97.8767008 L78.8123635,97.8767008 L78.8123635,0 L97.8111876,0 L115.434235,79.0744163 C114.844616,74.9470855 114.320511,69.7060306 113.927432,63.4167647 C113.468839,57.1274987 113.2723,50.7072065 113.2723,44.0903746 L113.2723,0 L126.702503,0 L126.702503,97.8767008 L126.702503,97.8767008 Z" id="Path" fill-rule="nonzero"></path>
                <path d="M159.066017,38.8493197 C166.403494,38.8493197 172.168654,41.4043339 176.230472,46.5143625 C180.357803,51.6243911 182.388712,59.2239207 182.388712,69.2474383 C182.388712,78.8123635 180.29229,86.2808668 176.164959,91.6529481 C172.037628,96.9595162 166.337981,99.6455569 159.000504,99.6455569 C151.72854,99.6455569 146.028893,97.0250294 141.836049,91.8494877 C137.708718,86.6739459 135.612296,79.1399294 135.612296,69.2474383 C135.612296,59.4204603 137.643205,51.951957 141.770536,46.7109021 C145.96338,41.4698471 151.72854,38.8493197 159.066017,38.8493197 L159.066017,38.8493197 Z M159.066017,49.9865614 C156.24895,49.9865614 154.218041,51.4278515 152.907778,54.3759449 C151.597514,57.3240383 150.942382,62.2375273 150.942382,69.2474383 C150.942382,76.3228624 151.597514,81.3018646 152.907778,84.249958 C154.218041,87.1980514 156.24895,88.6393415 159.066017,88.6393415 C161.883084,88.6393415 163.913993,87.1325382 165.224257,84.1844448 C166.53452,81.2363514 167.189652,76.2573492 167.189652,69.2474383 C167.189652,62.1720141 166.53452,57.1930119 165.224257,54.3104317 C163.913993,51.4278515 161.883084,49.9865614 159.066017,49.9865614 Z" id="Shape" fill-rule="nonzero"></path>
                <polygon id="Path" fill-rule="nonzero" points="260.545943 0 250.587939 97.8767008 230.67193 97.8767008 223.46548 60.9272636 215.86595 97.8767008 196.277507 97.8767008 186.712582 0 201.322023 0 207.480262 82.3500756 215.66941 40.6181757 231.654628 40.6181757 239.51621 82.3500756 246.460608 0"></polygon>
                <path d="M308.436083,67.9371745 C308.436083,68.7233328 308.305056,70.6232152 308.108517,73.6368218 L278.824122,73.6368218 C279.086175,79.2709558 280.134386,83.1362338 281.772216,85.298169 C283.475559,87.4601041 285.834033,88.5738283 288.84764,88.5738283 C290.944062,88.5738283 292.909457,88.1807492 294.678313,87.4601041 C296.512683,86.6739459 298.412565,85.5602217 300.508987,83.9223921 L306.5362,92.0460272 C301.360658,97.0905426 295.136906,99.6455569 287.799429,99.6455569 C280.068873,99.6455569 274.172686,97.0250294 270.045355,91.7839745 C265.918025,86.5429195 263.887116,79.1399294 263.887116,69.7060306 C263.887116,60.2721317 265.852511,52.7381152 269.717789,47.2350076 C273.583067,41.6663867 279.217201,38.9148329 286.489165,38.9148329 C293.36805,38.9148329 298.674618,41.4043339 302.539896,46.3178229 C306.5362,51.2313119 308.436083,58.4377625 308.436083,67.9371745 L308.436083,67.9371745 Z M294.154208,63.7443306 C294.154208,58.5687888 293.564589,54.769024 292.450865,52.4760625 C291.271628,50.1175878 289.371745,48.9383504 286.751218,48.9383504 C284.32723,48.9383504 282.427348,50.1175878 281.182597,52.4105493 C279.937846,54.7035108 279.151688,58.7653284 278.889635,64.6615152 L294.154208,64.6615152 C294.154208,64.596002 294.154208,63.7443306 294.154208,63.7443306 Z" id="Shape" fill-rule="nonzero"></path>
                <path d="M333.331094,38.8493197 C336.868806,38.8493197 340.144465,39.4389384 343.092558,40.6181757 C346.106165,41.7974131 348.726692,43.5007559 350.954141,45.7282043 L345.451033,53.720813 C341.585755,50.903746 337.917017,49.5279691 334.510331,49.5279691 C332.544935,49.5279691 331.038132,49.9865614 329.989921,50.9692592 C328.876197,51.951957 328.352091,53.3277339 328.352091,55.1621031 C328.352091,56.4068537 328.614144,57.3895515 329.13825,58.2412229 C329.662355,59.0928943 330.645053,59.8790526 332.02083,60.730724 C333.396607,61.5823954 335.493029,62.5650932 338.310096,63.6788174 C343.223585,65.644213 346.82681,67.9371745 349.119772,70.557702 C351.412733,73.1782295 352.59197,76.7159415 352.59197,81.2363514 C352.59197,86.9359987 350.626575,91.3908953 346.63027,94.6665547 C342.633966,97.942214 337.589451,99.5800437 331.365698,99.5800437 C327.434907,99.5800437 323.700655,98.8593986 320.359483,97.4181085 C316.952797,95.9768184 314.070217,93.9459096 311.580716,91.3908953 L318.525113,83.7258525 C322.848984,87.2635646 326.910801,89.0324206 330.776079,89.0324206 C332.938014,89.0324206 334.641357,88.4428019 335.886108,87.3290778 C337.130858,86.1498404 337.720477,84.5775239 337.720477,82.5466152 C337.720477,80.3191668 337.065345,78.5503108 335.755081,77.3055602 C334.444818,76.0608097 331.758777,74.6195196 327.762473,73.0472031 C322.783471,71.0162943 319.245758,68.7233328 317.083823,66.1028053 C314.987401,63.4822778 313.873677,60.2066185 313.873677,56.1448009 C313.873677,52.8691416 314.659835,49.9865614 316.166639,47.3005207 C317.738955,44.6799933 319.966403,42.5835713 322.914497,41.076768 C325.86259,39.6354779 329.334789,38.8493197 333.331094,38.8493197 Z" id="Path" fill-rule="nonzero"></path>
                <path d="M390,95.3216865 C388.165631,96.7629767 386.134722,97.8767008 383.907274,98.5973459 C381.614312,99.3179909 379.321351,99.71107 377.028389,99.71107 C371.787334,99.71107 367.79103,98.2042668 365.104989,95.2561734 C362.418948,92.2425668 361.108685,88.1807492 361.108685,83.0707206 L361.108685,51.1002856 L354.753906,51.1002856 L354.753906,40.6181757 L361.108685,40.6181757 L361.108685,28.0396439 L375.783639,26.2052747 L375.783639,40.6181757 L386.527801,40.6181757 L385.152024,51.1002856 L375.849152,51.1002856 L375.849152,82.8741811 C375.849152,86.2153536 377.224929,87.8531833 379.976482,87.8531833 C380.893667,87.8531833 381.745338,87.7221569 382.465984,87.4601041 C383.186629,87.1980514 384.0383,86.8049723 385.086511,86.2153536 L390,95.3216865 L390,95.3216865 Z" id="Path" fill-rule="nonzero"></path>
            </g>
        </g>
    </g>
</svg>