<?xml version="1.0" encoding="utf-8"?>
<!-- Generator: Adobe Illustrator 27.9.2, SVG Export Plug-In . SVG Version: 6.00 Build 0)  -->
<svg version="1.1" id="Ebene_1" xmlns="http://www.w3.org/2000/svg" xmlns:xlink="http://www.w3.org/1999/xlink" x="0px" y="0px"
	 viewBox="0 0 251.6 111" style="enable-background:new 0 0 251.6 111;" xml:space="preserve">
<style type="text/css">
	.st0{fill:#001E52;}
</style>
<path class="st0" d="M73.7,85.7c-1.9,0-3.3,1.4-3.3,3.2c0,1.8,1.4,3.1,3.3,3.1s3.3-1.4,3.3-3.1C77,87.1,75.6,85.7,73.7,85.7z"/>
<g>
	<path class="st0" d="M79.3,49.8H68.2c-1.1,0-2-0.9-2-2s0.9-2,2-2h11.1c1.1,0,2,0.9,2,2S80.4,49.8,79.3,49.8z"/>
</g>
<path class="st0" d="M114.2,26.3c-9.1-5.4-27.1-15.9-36.5-20.9c-2.3-1.2-5.7-1.2-8.2,0c-4.3,2.4-10.4,5.9-16.9,9.6
	c-0.2,0.1-0.4,0.2-0.6,0.4l-17.7-10l-0.1-0.1c-2.4-1.2-5.6-1.2-8,0l-0.2,0.1c-0.1,0.1-14.8,8.7-19.7,11.3c-2.7,1.4-4.1,4.8-4.1,7.2
	v28c0,4.4,3.5,7.9,7.9,7.9h18.9v25c0,4.4,3.5,7.9,7.9,7.9h17.8v3.8c0,4.4,3.5,7.9,7.9,7.9h22c4.4,0,7.9-3.5,7.9-7.9v-3.8l17.6,0.1
	c4.4,0,7.9-3.5,7.9-7.9V33.4C118.1,30.7,116.5,27.8,114.2,26.3z M29.1,33.3v21H10.2c-1.2,0-2.3-1.1-2.3-2.3V24c0-0.8,0.7-2,1.1-2.2
	c4.8-2.6,18.4-10.6,19.8-11.4c0.8-0.4,2.1-0.4,2.9,0l14.7,8.3c-5,2.9-9.8,5.6-13.2,7.4C30.5,27.5,29.1,30.9,29.1,33.3z M87,96.6
	c0,1.2-1.1,2.3-2.3,2.3h-22c-1.2,0-2.3-1.1-2.3-2.3V41.7c0-1.2,1.1-2.3,2.3-2.3h22c1.2,0,2.3,1.1,2.3,2.3V96.6z M112.5,85
	c0,1.2-1.1,2.3-2.3,2.3l-17.6-0.1V41.7c0-4.4-3.5-7.9-7.9-7.9h-22c-4.4,0-7.9,3.5-7.9,7.9v45.5H37c-1.2,0-2.3-1.1-2.3-2.3V33.3
	c0-0.8,0.7-2,1.1-2.2c5-2.6,12.4-7,19.6-11.1c6.4-3.7,12.5-7.2,16.7-9.5c0.9-0.4,2.3-0.4,2.9,0c9.3,4.9,27.2,15.3,36.2,20.7
	c0.6,0.4,1.2,1.6,1.2,2.3V85z"/>
<g id="Text">
	<g>
		<path class="st0" d="M143,22.8c-2.3,0-3.8-1-4.4-2.8v-0.1l-4.2,1.6l0,0c1.1,3.2,4,5,8.4,5c5,0,8.1-2.4,8.1-6.2
			c0-4.2-3.7-5.3-6.7-6.1c-2.1-0.6-3.9-1.1-3.9-2.5c0-1.2,0.9-1.9,2.6-1.9c1.6,0,2.7,0.7,3.2,2.1l0,0l4.1-1.6l0,0l0,0
			c-0.8-2.7-3.6-4.2-7.3-4.2c-2.3,0-4.2,0.5-5.5,1.6c-1.4,1-2.1,2.5-2.1,4.2c0,3.8,3.4,4.9,6.5,5.8c2.3,0.7,4.2,1.3,4.2,2.9
			C146,22,144.9,22.8,143,22.8z"/>
		<path class="st0" d="M158.7,14.3c0-2.5,2.2-3.8,4.1-3.9c2.4,0,4,1.7,4,4.4V26h4.8V14.3c0.1-2.5,2.2-3.8,4.1-3.9c2.4,0,4,1.7,4,4.4
			V26h4.8V14c0-2.2-0.7-4.2-1.9-5.6c-1.3-1.5-3.3-2.3-5.6-2.3c-3,0-5.3,1.1-6.6,3.1c-1.2-2.1-3.2-3.1-6.2-3.1
			c-2.3,0-4.4,0.9-5.8,2.5v-2h-4.5v19.5h4.8L158.7,14.3L158.7,14.3z"/>
		<path class="st0" d="M197.2,26.6c2.7,0,4.9-1,6.4-3v2.5h4.4V6.6h-4.4v2.7c-1.5-1.8-3.7-2.8-6.4-2.8s-5.2,1-6.9,2.8
			c-1.8,1.8-2.7,4.3-2.7,7.2c0,2.8,1,5.4,2.7,7.3C192,25.6,194.5,26.6,197.2,26.6z M197.8,22.4c-3.2,0-5.5-2.5-5.5-6s2.3-6,5.5-6
			c3.3,0,5.6,2.4,5.6,6C203.4,19.9,201.1,22.4,197.8,22.4z"/>
		<path class="st0" d="M217.1,15c0-2.7,2.1-4.4,5.5-4.4l0,0V6.2l0,0c-2.2,0-4.3,0.9-5.7,2.5V6.6h-4.5v19.5h4.8V15H217.1z"/>
		<path class="st0" d="M235.4,26.1h3.1V22h-2.2c-2.1,0-3.2-1.2-3.2-3.4v-7.8h5.2V6.6h-5.1v-5h-4.7v3.1c0,1.3-0.6,1.9-1.9,1.9H225
			v4.1h3.4V19C228.3,23.6,230.9,26.1,235.4,26.1z"/>
		<polygon class="st0" points="141.3,66 146.7,66 154.1,46.6 154.2,46.5 149.2,46.5 144,61.3 138.8,46.5 138.8,46.5 133.8,46.5 		
			"/>
		<path class="st0" d="M158.8,43.5c1.9,0,3.3-1.4,3.3-3.1c0-1.8-1.4-3.2-3.3-3.2s-3.3,1.4-3.3,3.2C155.6,42.2,157,43.5,158.8,43.5z"
			/>
		<rect x="156.4" y="46.5" class="st0" width="4.8" height="19.5"/>
		<rect x="165.5" y="39" class="st0" width="4.8" height="27"/>
		<rect x="174.5" y="39" class="st0" width="4.8" height="27"/>
		<path class="st0" d="M192.3,66.5c2.7,0,4.9-1,6.4-3V66h4.4V46.5h-4.4v2.7c-1.5-1.8-3.7-2.8-6.4-2.8s-5.2,1-6.9,2.8
			c-1.8,1.8-2.7,4.3-2.7,7.2c0,2.8,1,5.4,2.7,7.3C187.1,65.4,189.6,66.5,192.3,66.5z M192.9,62.2c-3.2,0-5.5-2.5-5.5-6s2.3-6,5.5-6
			c3.3,0,5.6,2.4,5.6,6S196.2,62.2,192.9,62.2z"/>
		<path class="st0" d="M222.4,49c-1.5-1.9-3.7-2.9-6.4-2.9s-5.1,1-6.9,2.9c-1.8,1.8-2.7,4.3-2.7,6.9c0,5.5,4.2,9.7,9.7,9.7
			c2.6,0,4.8-1,6.4-2.9v1c0,3.4-2.3,5.5-6,5.5c-2.8,0-4.8-1.2-5.6-3.4l0,0l-4.1,1.6l0,0l0,0c1.4,3.8,4.7,5.8,9.7,5.8
			c3.2,0,5.9-0.9,7.7-2.7c1.8-1.7,2.8-4.2,2.8-7.2V46.5h-4.4V49H222.4z M216.6,61.8c-3.1,0-5.4-2.5-5.4-5.7c0-3.3,2.4-5.7,5.5-5.7
			c3.2,0,5.4,2.4,5.4,5.7C222.1,59.4,219.8,61.8,216.6,61.8z"/>
		<path class="st0" d="M247.2,49.1c-1.3-1.4-3.6-3-7.2-3c-2.7,0-5.2,1.1-7.1,3c-1.9,1.9-2.9,4.5-2.9,7.2c0,2.9,1,5.4,2.8,7.3
			c1.9,1.9,4.5,2.9,7.5,2.9c4,0,7-1.5,8.8-4.4l0,0l-3.7-2.4l0,0l0,0c-1,1.9-2.5,2.7-4.9,2.7c-2.9,0-5.1-1.8-5.7-4.6h15l0,0
			c0.1-0.4,0.1-1.1,0.1-1.9C249.8,53.4,248.9,50.9,247.2,49.1z M234.7,54.4c0.6-2.8,2.6-4.6,5.4-4.6c2.7,0,4.6,1.8,5.2,4.6H234.7z"
			/>
		<path class="st0" d="M150.9,86.1c-1.5-1.8-3.7-2.8-6.4-2.8s-5.2,1-6.9,2.8c-1.8,1.8-2.7,4.3-2.7,7.2c0,2.8,1,5.4,2.7,7.3
			c1.8,1.9,4.2,2.9,6.9,2.9s4.9-1,6.4-3v2.5h4.4V83.4h-4.4V86.1z M145.2,99.1c-3.2,0-5.5-2.5-5.5-6s2.3-6,5.5-6c3.3,0,5.6,2.4,5.6,6
			S148.5,99.1,145.2,99.1z"/>
		<path class="st0" d="M170.6,83c-2.7,0-4.9,1-6.5,2.9v-2.5h-4.4v26.1h4.8v-8.6c1.5,1.6,3.6,2.4,6,2.4c2.7,0,5.2-1,6.9-2.9
			c1.8-1.9,2.7-4.4,2.7-7.3C180.1,87.2,176.1,83,170.6,83z M169.8,87.2c3.2,0,5.5,2.5,5.5,6c0,3.4-2.4,6-5.5,6c-3.3,0-5.6-2.4-5.6-6
			S166.5,87.2,169.8,87.2z"/>
		<path class="st0" d="M194.3,83c-2.7,0-4.9,1-6.5,2.9v-2.5h-4.4v26.1h4.8v-8.6c1.5,1.6,3.6,2.4,6,2.4c2.7,0,5.2-1,6.9-2.9
			c1.8-1.9,2.7-4.4,2.7-7.3C203.9,87.2,199.9,83,194.3,83z M193.6,87.2c3.2,0,5.5,2.5,5.5,6c0,3.4-2.4,6-5.5,6c-3.3,0-5.6-2.4-5.6-6
			S190.3,87.2,193.6,87.2z"/>
	</g>
</g>
</svg>
