<?xml version="1.0" encoding="UTF-8"?>
<svg width="250px" height="250px" viewBox="0 0 250 250" version="1.1" xmlns="http://www.w3.org/2000/svg" xmlns:xlink="http://www.w3.org/1999/xlink">
    <title>Group 2</title>
    <g id="Page-1" stroke="none" stroke-width="1" fill="none" fill-rule="evenodd">
        <g id="Group-2">
            <g id="SVA_Logo_rgb" transform="translate(1.000000, 71.000000)" fill="#001E52" fill-rule="nonzero">
                <path d="M71.5,84.1 C69.6,84.1 68.2,85.5 68.2,87.3 C68.2,89.1 69.6,90.4 71.5,90.4 C73.4,90.4 74.8,89 74.8,87.3 C74.8,85.5 73.4,84.1 71.5,84.1 Z" id="Path"></path>
                <path d="M77.1,48.2 L66,48.2 C64.9,48.2 64,47.3 64,46.2 C64,45.1 64.9,44.2 66,44.2 L77.1,44.2 C78.2,44.2 79.1,45.1 79.1,46.2 C79.1,47.3 78.2,48.2 77.1,48.2 Z" id="Path"></path>
                <path d="M112,24.7 C102.9,19.3 84.9,8.8 75.5,3.8 C73.2,2.6 69.8,2.6 67.3,3.8 C63,6.2 56.9,9.7 50.4,13.4 C50.2,13.5 50,13.6 49.8,13.8 L32.1,3.8 L32,3.7 C29.6,2.5 26.4,2.5 24,3.7 L23.8,3.8 C23.7,3.9 9,12.5 4.1,15.1 C1.4,16.5 7.10542736e-15,19.9 7.10542736e-15,22.3 L7.10542736e-15,50.3 C7.10542736e-15,54.7 3.5,58.2 7.9,58.2 L26.8,58.2 L26.8,83.2 C26.8,87.6 30.3,91.1 34.7,91.1 L52.5,91.1 L52.5,94.9 C52.5,99.3 56,102.8 60.4,102.8 L82.4,102.8 C86.8,102.8 90.3,99.3 90.3,94.9 L90.3,91.1 L107.9,91.2 C112.3,91.2 115.8,87.7 115.8,83.3 L115.8,31.8 C115.9,29.1 114.3,26.2 112,24.7 Z M26.9,31.7 L26.9,52.7 L8,52.7 C6.8,52.7 5.7,51.6 5.7,50.4 L5.7,22.4 C5.7,21.6 6.4,20.4 6.8,20.2 C11.6,17.6 25.2,9.6 26.6,8.8 C27.4,8.4 28.7,8.4 29.5,8.8 L44.2,17.1 C39.2,20 34.4,22.7 31,24.5 C28.3,25.9 26.9,29.3 26.9,31.7 Z M84.8,95 C84.8,96.2 83.7,97.3 82.5,97.3 L60.5,97.3 C59.3,97.3 58.2,96.2 58.2,95 L58.2,40.1 C58.2,38.9 59.3,37.8 60.5,37.8 L82.5,37.8 C83.7,37.8 84.8,38.9 84.8,40.1 L84.8,95 Z M110.3,83.4 C110.3,84.6 109.2,85.7 108,85.7 L90.4,85.6 L90.4,40.1 C90.4,35.7 86.9,32.2 82.5,32.2 L60.5,32.2 C56.1,32.2 52.6,35.7 52.6,40.1 L52.6,85.6 L34.8,85.6 C33.6,85.6 32.5,84.5 32.5,83.3 L32.5,31.7 C32.5,30.9 33.2,29.7 33.6,29.5 C38.6,26.9 46,22.5 53.2,18.4 C59.6,14.7 65.7,11.2 69.9,8.9 C70.8,8.5 72.2,8.5 72.8,8.9 C82.1,13.8 100,24.2 109,29.6 C109.6,30 110.2,31.2 110.2,31.9 L110.2,83.4 L110.3,83.4 Z" id="Shape"></path>
                <g id="Group" transform="translate(131.600000, 0.000000)">
                    <path d="M9.2,21.2 C6.9,21.2 5.4,20.2 4.8,18.4 L4.8,18.3 L0.6,19.9 L0.6,19.9 C1.7,23.1 4.6,24.9 9,24.9 C14,24.9 17.1,22.5 17.1,18.7 C17.1,14.5 13.4,13.4 10.4,12.6 C8.3,12 6.5,11.5 6.5,10.1 C6.5,8.9 7.4,8.2 9.1,8.2 C10.7,8.2 11.8,8.9 12.3,10.3 L12.3,10.3 L16.4,8.7 L16.4,8.7 L16.4,8.7 C15.6,6 12.8,4.5 9.1,4.5 C6.8,4.5 4.9,5 3.6,6.1 C2.2,7.1 1.5,8.6 1.5,10.3 C1.5,14.1 4.9,15.2 8,16.1 C10.3,16.8 12.2,17.4 12.2,19 C12.2,20.4 11.1,21.2 9.2,21.2 Z" id="Path"></path>
                    <path d="M24.9,12.7 C24.9,10.2 27.1,8.9 29,8.8 C31.4,8.8 33,10.5 33,13.2 L33,24.4 L37.8,24.4 L37.8,12.7 C37.9,10.2 40,8.9 41.9,8.8 C44.3,8.8 45.9,10.5 45.9,13.2 L45.9,24.4 L50.7,24.4 L50.7,12.4 C50.7,10.2 50,8.2 48.8,6.8 C47.5,5.3 45.5,4.5 43.2,4.5 C40.2,4.5 37.9,5.6 36.6,7.6 C35.4,5.5 33.4,4.5 30.4,4.5 C28.1,4.5 26,5.4 24.6,7 L24.6,5 L20.1,5 L20.1,24.5 L24.9,24.5 L24.9,12.7 L24.9,12.7 Z" id="Path"></path>
                    <path d="M63.4,25 C66.1,25 68.3,24 69.8,22 L69.8,24.5 L74.2,24.5 L74.2,5 L69.8,5 L69.8,7.7 C68.3,5.9 66.1,4.9 63.4,4.9 C60.7,4.9 58.2,5.9 56.5,7.7 C54.7,9.5 53.8,12 53.8,14.9 C53.8,17.7 54.8,20.3 56.5,22.2 C58.2,24 60.7,25 63.4,25 Z M64,20.8 C60.8,20.8 58.5,18.3 58.5,14.8 C58.5,11.3 60.8,8.8 64,8.8 C67.3,8.8 69.6,11.2 69.6,14.8 C69.6,18.3 67.3,20.8 64,20.8 Z" id="Shape"></path>
                    <path d="M83.3,13.4 C83.3,10.7 85.4,9 88.8,9 L88.8,9 L88.8,4.6 L88.8,4.6 C86.6,4.6 84.5,5.5 83.1,7.1 L83.1,5 L78.6,5 L78.6,24.5 L83.4,24.5 L83.4,13.4 L83.3,13.4 Z" id="Path"></path>
                    <path d="M101.6,24.5 L104.7,24.5 L104.7,20.4 L102.5,20.4 C100.4,20.4 99.3,19.2 99.3,17 L99.3,9.2 L104.5,9.2 L104.5,5 L99.4,5 L99.4,-1.77635684e-15 L94.7,-1.77635684e-15 L94.7,3.1 C94.7,4.4 94.1,5 92.8,5 L91.2,5 L91.2,9.1 L94.6,9.1 L94.6,17.4 C94.5,22 97.1,24.5 101.6,24.5 Z" id="Path"></path>
                    <polygon id="Path" points="7.5 64.4 12.9 64.4 20.3 45 20.4 44.9 15.4 44.9 10.2 59.7 5 44.9 5 44.9 0 44.9"></polygon>
                    <path d="M25,41.9 C26.9,41.9 28.3,40.5 28.3,38.8 C28.3,37 26.9,35.6 25,35.6 C23.1,35.6 21.7,37 21.7,38.8 C21.8,40.6 23.2,41.9 25,41.9 Z" id="Path"></path>
                    <rect id="Rectangle" x="22.6" y="44.9" width="4.8" height="19.5"></rect>
                    <rect id="Rectangle" x="31.7" y="37.4" width="4.8" height="27"></rect>
                    <rect id="Rectangle" x="40.7" y="37.4" width="4.8" height="27"></rect>
                    <path d="M58.5,64.9 C61.2,64.9 63.4,63.9 64.9,61.9 L64.9,64.4 L69.3,64.4 L69.3,44.9 L64.9,44.9 L64.9,47.6 C63.4,45.8 61.2,44.8 58.5,44.8 C55.8,44.8 53.3,45.8 51.6,47.6 C49.8,49.4 48.9,51.9 48.9,54.8 C48.9,57.6 49.9,60.2 51.6,62.1 C53.3,63.8 55.8,64.9 58.5,64.9 Z M59.1,60.6 C55.9,60.6 53.6,58.1 53.6,54.6 C53.6,51.1 55.9,48.6 59.1,48.6 C62.4,48.6 64.7,51 64.7,54.6 C64.7,58.2 62.4,60.6 59.1,60.6 Z" id="Shape"></path>
                    <path d="M88.6,47.4 C87.1,45.5 84.9,44.5 82.2,44.5 C79.5,44.5 77.1,45.5 75.3,47.4 C73.5,49.2 72.6,51.7 72.6,54.3 C72.6,59.8 76.8,64 82.3,64 C84.9,64 87.1,63 88.7,61.1 L88.7,62.1 C88.7,65.5 86.4,67.6 82.7,67.6 C79.9,67.6 77.9,66.4 77.1,64.2 L77.1,64.2 L73,65.8 L73,65.8 L73,65.8 C74.4,69.6 77.7,71.6 82.7,71.6 C85.9,71.6 88.6,70.7 90.4,68.9 C92.2,67.2 93.2,64.7 93.2,61.7 L93.2,44.9 L88.8,44.9 L88.8,47.4 L88.6,47.4 Z M82.8,60.2 C79.7,60.2 77.4,57.7 77.4,54.5 C77.4,51.2 79.8,48.8 82.9,48.8 C86.1,48.8 88.3,51.2 88.3,54.5 C88.3,57.8 86,60.2 82.8,60.2 Z" id="Shape"></path>
                    <path d="M113.4,47.5 C112.1,46.1 109.8,44.5 106.2,44.5 C103.5,44.5 101,45.6 99.1,47.5 C97.2,49.4 96.2,52 96.2,54.7 C96.2,57.6 97.2,60.1 99,62 C100.9,63.9 103.5,64.9 106.5,64.9 C110.5,64.9 113.5,63.4 115.3,60.5 L115.3,60.5 L111.6,58.1 L111.6,58.1 L111.6,58.1 C110.6,60 109.1,60.8 106.7,60.8 C103.8,60.8 101.6,59 101,56.2 L116,56.2 L116,56.2 C116.1,55.8 116.1,55.1 116.1,54.3 C116,51.8 115.1,49.3 113.4,47.5 Z M100.9,52.8 C101.5,50 103.5,48.2 106.3,48.2 C109,48.2 110.9,50 111.5,52.8 L100.9,52.8 Z" id="Shape"></path>
                    <path d="M17.1,84.5 C15.6,82.7 13.4,81.7 10.7,81.7 C8,81.7 5.5,82.7 3.8,84.5 C2,86.3 1.1,88.8 1.1,91.7 C1.1,94.5 2.1,97.1 3.8,99 C5.6,100.9 8,101.9 10.7,101.9 C13.4,101.9 15.6,100.9 17.1,98.9 L17.1,101.4 L21.5,101.4 L21.5,81.8 L17.1,81.8 L17.1,84.5 Z M11.4,97.5 C8.2,97.5 5.9,95 5.9,91.5 C5.9,88 8.2,85.5 11.4,85.5 C14.7,85.5 17,87.9 17,91.5 C17,95.1 14.7,97.5 11.4,97.5 Z" id="Shape"></path>
                    <path d="M36.8,81.4 C34.1,81.4 31.9,82.4 30.3,84.3 L30.3,81.8 L25.9,81.8 L25.9,107.9 L30.7,107.9 L30.7,99.3 C32.2,100.9 34.3,101.7 36.7,101.7 C39.4,101.7 41.9,100.7 43.6,98.8 C45.4,96.9 46.3,94.4 46.3,91.5 C46.3,85.6 42.3,81.4 36.8,81.4 Z M36,85.6 C39.2,85.6 41.5,88.1 41.5,91.6 C41.5,95 39.1,97.6 36,97.6 C32.7,97.6 30.4,95.2 30.4,91.6 C30.4,88 32.7,85.6 36,85.6 Z" id="Shape"></path>
                    <path d="M60.5,81.4 C57.8,81.4 55.6,82.4 54,84.3 L54,81.8 L49.6,81.8 L49.6,107.9 L54.4,107.9 L54.4,99.3 C55.9,100.9 58,101.7 60.4,101.7 C63.1,101.7 65.6,100.7 67.3,98.8 C69.1,96.9 70,94.4 70,91.5 C70.1,85.6 66.1,81.4 60.5,81.4 Z M59.8,85.6 C63,85.6 65.3,88.1 65.3,91.6 C65.3,95 62.9,97.6 59.8,97.6 C56.5,97.6 54.2,95.2 54.2,91.6 C54.2,88 56.5,85.6 59.8,85.6 Z" id="Shape"></path>
                </g>
            </g>
            <rect id="Rectangle" x="0" y="0" width="250" height="250"></rect>
        </g>
    </g>
</svg>